<svg xmlns="http://www.w3.org/2000/svg" viewBox="0 0 392.79 141.1"><defs><style>.cls-1,.cls-2,.cls-3{fill:#F68F4F;stroke:#ec691d;}.cls-1,.cls-2{stroke-miterlimit:10;}.cls-1,.cls-3{fill-rule:evenodd;}.cls-3{stroke-miterlimit:22.93;}</style></defs><g id="Слой_2" data-name="Слой 2"><g id="bg"><g id="BOY"><path class="cls-1" d="M53.5,118,52,117.52m1.48.47c6.09-.78,6.88,0,12.64-1.56,7-1.87,6.86-3.39,10.69-4.75-2.76,5.13-13.75,8.46-20.34,7.23Zm7.35-3.59c.66-5.61-1.59-5.15,4.05-7.16C65.67,113.22,69.39,113.3,60.85,114.4Zm-10.37-3.32c2.84-.36,2.28-.07,4.11-1.19l.59,4.57C51.26,114.12,51.72,112.75,50.48,111.08ZM69,106.73c-.25-1.22,1.83-2.12,3.36-2.44a10.59,10.59,0,0,0,2.07,5l-3.92,2.52ZM49.64,88a12.42,12.42,0,0,1,1.26-6.8c7.72-1,23.16-1.74,28.78,2.94-1.53,13.09-10.3,0-21.82,1.48A24.54,24.54,0,0,0,49.64,88ZM59.7,66.75c2.5-1,3-2.38,6-3.42.63,4.88-.72,3.71-4.13,6.51A9.61,9.61,0,0,0,59.7,66.75Zm10.5-6.66A17.66,17.66,0,0,0,76.32,58l1.49,5.1a20.68,20.68,0,0,1-6.32,1.49C70.94,62.08,70.66,63,70.2,60.09ZM90.26,61.5l-7,.9c-.55-2.49-1-2-1.37-5.14L91,56.1C91.08,58.46,90.53,59.33,90.26,61.5ZM52,117.52l-2.86-.38c4.48,4.62,17.6,4.73,26.61-2.67-3,25.44-24.3,8.11-31,10.84C42,126.45,39,132.75,38,135.26l-14,1.79c3.64-8.93,11.06-17,8.19-25.69-1.67-5.07-3.38-10.72-4.75-15.43-1.54-5.31-3.67-10.4-4.37-15.84C8.17,82,3.38,67.35,18.35,65.43L6.83,31.07c5.2,2.39,9.71,7.3,15.48,10-.44-3.44-1-3.51-1.54-6.44-.46-2.43-.68-5.34-1-7.84l13.86,9.66L32.26,24.48C35.27,25.87,43,31.65,46,32l-1.17-9.14c3.85,1.77,5.72,5.07,10.78,8.09,3,1.8,6,.84,11.23,2.27,2.28.62,1.39.69,3.58,1a28,28,0,0,1-1.67,3.53c2.51-.89,1.81-1.32,4.72-1.93,4.29,5.73,2.1,3.91,1.62,7.09,3-2,6.15-3.89,9.19-5.83,3.51-2.22,5.12-4,10.76-4.7-.53,3.46-9.23,11.48-13.33,12.34-.9-2.47-.67-.66-.42-3.27-2.88,2.37-2,2.11-.72,5.4,8.23.72,2.31-.68,8.51,1.79,3.11,1.24,5.15,1.11,9.54.54-.8,5.27-6.64,3.77-11.54,4.13C62.84,55.06,47.14,70.66,45.27,93.1a49,49,0,0,0,.41,14C46.69,113.63,48.79,114.05,52,117.52ZM42.37,25.84c-2.39-.28-5-2.26-7.14-3.44-2.62-1.46-4.79-2.84-7.31-4l1.43,11.1L15.49,19.85c.6,5.93,1.7,8.91,2.41,14.44C14,32.48,3.25,24.31.85,23.21L11.09,53.08c.71,2.29,2.42,8.71,3.43,10.19C1.1,66.06,4.64,84.77,20.61,83.06,21.36,88.9,29.69,111.41,30,115c.25,3.35-3.36,10.79-4.8,13.44l-7.11,12.06L40.4,137.6c.37-2.45,4-8.58,5.81-10,3.71.32,26.67,13.13,32.17-10a30.18,30.18,0,0,1,.76-3c.25-.71,3.38-6.65-1.57-7.28-2.62-.34-.62,2.29-2.69-.74-2.31-3.38.42-5.79-4.89-3.9l.58-12c1.06.37,4.5,1.41,5.84,1.24,6.2-.8,8.76-12.82-3-12.23-.1-2.56,1.08-3.67,2.22-5.51A33.38,33.38,0,0,1,79,69.41c4.09-5,3.39-4.91,12.18-6,.7-1.72,2-5.36,1.88-7.54,5-.65,9.6-2.64,8.85-8.44-.48-3.71-3.65-1.53-6.54-1.15-4.18.53-4.33-.72-7.23-1.07C91,39.89,99.38,38.54,98.36,30.59S78,37.18,77.91,37.2c-.72-3.3-.64-.82-1.9-3.74.1-.06,1.71-1,1.78-1.09,1.24-1.07,1-.33,1.38-2-2.2.78-2.92,1.5-5.42,2,1.06-2,3-4.79,3.35-7.06-2.23.87-3.19,2.73-4.92,5.94A44.22,44.22,0,0,0,63.46,29c-7.78-1.12-7.07-1-15.48-8.45-1.09-1-2.15-2-3.19-2.93-1.47-1.39-1.33-2-3.76-2.24Z"/><path class="cls-1" d="M48,36.4c1.52,1.5,3.08,1.64,5.51,2.39l5.72,2.14c-4.33.56-8.2.36-11,2.74,4.24-.54,5.16,0,9.14-.48,3.48-.41,7-.93,10.5-1.38C65.67,39.66,50.92,36.25,48,36.4"/><path class="cls-1" d="M83.2,78.34c3.36-.44,27.9-6.59,31.52-9.31,1.43-1.08.66.23,1.17-1.53C109,69.94,97.8,72.31,87,76.36Z"/><path class="cls-1" d="M120.58,87.47l-18.94.26c-5.75,0-13.71,1.28-20.51,2.16a3.48,3.48,0,0,0,1.42.55,5.62,5.62,0,0,0,2.3.23l15.22-1c5.76,0,13.71-1.27,20.51-2.15"/><path class="cls-1" d="M110.16,111.38,95.26,106c-3.55-1-13.27-4-16.81-3.82,2,1.94,11.55,4.31,14.89,5.39,3.19,1,13.21,4,16.82,3.81"/><path class="cls-1" d="M42,83.63l.92-2.3c2.53-7,4.66-11.8,10.77-17.13C58.53,60,68,53.73,77.05,52.58L77,51.92C58.43,54.31,40.79,72.21,42,83.63"/><path class="cls-1" d="M19.22,71.18C16.43,72.26,13.12,75,17,76.89c-.13-3.42.56-3.46,2.9-5,.57,2.55,1.1,3,1.54,6.44,2.52-3.52.24-9.41-5.53-9.91Z"/><path class="cls-1" d="M51.32,84.42l12-.86c2.73-.17,1.53.24,4.28.11-2.51-2.48-16.09-1.86-16.23.75"/><path class="cls-1" d="M89.21,97.48c3.92-.2,13.55,1.57,20.67.66-1.5-1.48-1.48-1.35-4.28-1.61Z"/><path class="cls-1" d="M32.38,86.19c2,.6.82.5,3.57.21-.39-2.56,0-1.56-1.12-3.18-2.22.87-2.17.66-2.45,3"/><path class="cls-1" d="M33.14,60.08l1.6,1.39,1.51-1.53-1.6-1.38Z"/><path class="cls-1" d="M37.55,66.81l1.6,1.39,1.51-1.52-1.6-1.39Z"/><path class="cls-1" d="M45.59,61.93c3.21-.67,1.31.54,2.62-1.67A4.83,4.83,0,0,0,45.34,60Z"/><path class="cls-1" d="M38.88,76.07l-.25-2-2.09.27c.79,1.83.2,1.49,2.34,1.69"/><path class="cls-1" d="M32.15,78.92l2.1-.27-.17-1.3-2.1.27Z"/><path class="cls-1" d="M63.84,126.62l2.1-.27-.17-1.3-2.1.27Z"/><path class="cls-1" d="M92.08,81.18l19.56-2.52c-9.44,1.22-5.49,0-14,1.77-1.65.35-3.84.53-5.57.75"/><path class="cls-1" d="M69.54,121.24c-.28.34-1.64.15.09.81.74.28,1.73-.11.77-.93-1.25-1.07-.44-.38-.86.12"/><path class="cls-1" d="M27.62,60.26c.1.76,1.7,1.27,1.08-.14s1.78-.25-.34-.16c-.89,0-.91-1-.74.3"/><path class="cls-1" d="M42,55.76c.09.77,1.69,1.28,1.08-.14s1.77-.25-.35-.15c-.89,0-.91-1-.73.29"/><path class="cls-1" d="M61.33,123.63c.1.76,1.69,1.28,1.08-.14s1.77-.25-.35-.15c-.89,0-.9-1-.73.29"/><path class="cls-1" d="M30,67.91c-.1,1.44,1.06.31.92-.25a.61.61,0,0,0-.07-.1h-.19c-1.3.24-.57-1-.66.34"/><path class="cls-1" d="M65.52,123.09c0,.21.79,0,.85,0s1.4,1.35.28-.22l-.39-.11c-.54.06-1.09-1-.74.31"/><path class="cls-1" d="M48,36.4l-.09-.65-.74.64Z"/><path class="cls-1" d="M300.55,78.69H299.3l.25-1.61a1.79,1.79,0,0,1,.42.34C300.73,78.19,300.49,78,300.55,78.69Zm69-42.06c-.09.66,2.92,1.65,3.32,1.77l-2.41-1.47C369.52,36.42,369.73,36.56,369.52,36.63Zm-11.78,6.5L359,43c1.41.42.79,1.89,3.27,1.62,1.78-.2,3.63-.48,5.4-.75a2,2,0,0,0-.5-.71c-2.08.23-1.81.41-3.75-.09a7.43,7.43,0,0,0-3.54-.46c-.27-.52-.95-1.17-.71-1.92s1.05-.84,1.61-1.24c.52-.23.89-.5,1.38-.39,1.24.93,3,1.09,5.16.66,0-1.63-1.4-2.79.21-3.92,4.4-3.11,2.45-2,5-1.6a6.41,6.41,0,0,0,3.79-1.1c.49-.27,1.16-.52,1.67-.8,4.52-2.44,2.49-6.14,3.18-9.59.16-.84.4-2.94,1.53-2.71,1.4.28,2.1,5.41,3.09,6.43.9-2.1.8-3.95,2.94-3.06.12.51-.79,3.67,1.2,1.46.48-.52.5-.75,1.43-.59A7.08,7.08,0,0,1,388.92,29c-.46.39-1,.64-1.56,1.11s-.93.72-1.38,1.11-.83.78-1.35,1.25c-1.51,1.39-2.67,1.62-2.2,2.78,1.52.55,3.56-.8,4.41-.78a7.5,7.5,0,0,1-1.07,3c-3.78.75-2.87,2.51-7.59,3.73-3.05.79-5.71,2.68-9.12,1.82.59,1.21,2.87.8,3.62.83a3.8,3.8,0,0,1,1.3.36c-.7,2-4,1.83-5.49,2.06-4.38.67-5.49,1.4-10.29,1.58-1.17,0-2.24.5-2.79-.47C354.29,45.3,356.54,44,357.74,43.13Zm-12.08-7c-.44,1,.08,3.36.47,4.16l.13.17A15.25,15.25,0,0,0,345.66,36.1Zm-17.27,7c.32-.86-.3-3.42-.57-4.31a.46.46,0,0,0-.12.28,2,2,0,0,1,0,.23,5,5,0,0,0,0,.55,9.09,9.09,0,0,0,.11,1.17A5.88,5.88,0,0,0,328.39,43.07Zm-46.58,2.3a.52.52,0,0,0-.14.3s0,.32,0,.35c0,.23,0,.37,0,.6a1.69,1.69,0,0,1-.37,1.2,3.09,3.09,0,0,1-2.24-.75c-.83-.63-.74-1-.88-2.24a31.62,31.62,0,0,1,3.43-18.36c.32-.61.68-1.23,1-1.83a41.71,41.71,0,0,1,2.52-3.44,36.79,36.79,0,0,1,4.53-4.46c4.6-4,11.15-6.65,17.08-8.73s14.59-5,21.3-5.55c8.74-.67,12.74-.94,21.43.55a58.71,58.71,0,0,1,9,2.27,31.26,31.26,0,0,1,11.11,6.47c4.05,3.66,5.23,6.91,6.06,12.53a4.81,4.81,0,0,1-1.13,4.41c-1.91,2-3.54,2.71-5.4,4-.66.45-1.17.85-1.75,1.31-3,2.43-.21.66-4,2.38a39.78,39.78,0,0,0-2-8c-.05-.13-.15-.39-.2-.5a1.07,1.07,0,0,0-.16-.27l-.16-.14c-.36,1,1.66,8.46.72,9.61-.65.72-6.35,2.78-7.8,3.3a43.17,43.17,0,0,1-9.24,2.36,10.42,10.42,0,0,0-.69-5.57c-.42.94.46,4.65.66,5.53-3.27,0-1.19-5.43-2.73-9.59a2.41,2.41,0,0,0-.32,1.25c-.61,4.59,1.3,7.87-.06,8.77a2.69,2.69,0,0,1-2.5,0,4.1,4.1,0,0,1-1.2-1.83c-.77-2-.2-3.21-.26-5.21-1,1-1.19,4-.55,5.91a6.89,6.89,0,0,1,.29,1c.23,1.61-2.19,1.15-2.5,1-1.44-.65-1.83-4.59-2.06-5.9-1.38,1-.11,5-.74,6.69l-5.39.71-1-5.85a7,7,0,0,0-.49,3.06c.15,1.61.68,1.91,1.08,3l-1.5.2-2.37.38c.12-1.34-.07-3.91-.79-5-.48,1.4.69,3.74.5,5.08-1.48.2-2.12-1.32-2.58-2.42a24.3,24.3,0,0,1-1.18-4.1c-.24.49.12,4,.17,4.59.29,2,.36,1.5-.48,2.51-1.18.33-2,.58-2.62-.32a12.7,12.7,0,0,1-.93-2.75c-.46-1.82.08-3.92-.2-6l-.32.52c-.09.21-.13.33-.21.56a9.34,9.34,0,0,0,.92,8.2l-.48.31c-1.55-.47-1.89,0-2.81-1.31-1.2-1.72-1.68-5.12-1.7-7.2a33.81,33.81,0,0,0,0-3.49c-.59.93-.59,4.94-.59,6.33,0,4.23,1.15,5.67-1.47,5.82-1.33.08-1.76-.81-2-2.08a48.48,48.48,0,0,1-.29-7,22,22,0,0,0,.06-3.21c-.61,2.25-1.08,2.29-1.19,5.53-.18,5.32,1.8,6.73-.38,7.26-4.05,1-3.05-2.63-3.63-5.6a18.12,18.12,0,0,1-.62-4.8c.06-1.42.33-3.15.3-4.46a10.11,10.11,0,0,0-1.1,3.09,20.3,20.3,0,0,0,0,7.69c.26,1.61,1.15,3.92.21,4.38l-1.44.22c-1.62-.12-2.37-1.68-2.64-3.15-.41-2.26-.29-5-1-7.15-.58,1-.73,3.49-.77,4.81-.07,2.05.17,3.36-.72,4.92a2.14,2.14,0,0,1-1.45,0c-.21-.89.15-2.8.1-4a35.75,35.75,0,0,0-.3-3.95,9.5,9.5,0,0,0-.78,3.86c-.07.68-.17,1.36-.29,2a6.28,6.28,0,0,0-.13,1.53c-.08.91-1.53,1-1.55,1-1.62-1-.51-4.09-.29-5.63.27-1.85.54-3.81.82-5.71-1.49.63-1.34,3.38-1.94,6-.24,1-.56,2-.86,3.11s-.6,2.41-1.7,2.49a4.52,4.52,0,0,1-.41-1.9l.05-.75c-.08-2.26.54-4.54.64-6.72-1.57,1-.67,2.54-1.89,4.54A2.32,2.32,0,0,0,281.81,45.37Zm95,15.35s0-.12.05-.1,0-.08.05-.11a3.23,3.23,0,0,0,.06-.33l-.06-2a5.07,5.07,0,0,0-.79-2.43A26.2,26.2,0,0,0,376.77,60.72Zm-13.89,5.63a8.84,8.84,0,0,0,1.94-4.9,7,7,0,0,0-1.15,2.38C363.49,64.43,362.94,65.9,362.88,66.35Zm9.87-40c.28-.28.26-.18.17-.73a7.14,7.14,0,0,0-1.81-3c-.43-.5-.5-.69-1-.94.4.88,1.39,1.87,2.11,3.39l.5,1.23ZM368.33,64.2a8.41,8.41,0,0,0,.47-5.12C368.29,59.73,368.24,63.2,368.33,64.2Zm6-24.25c-.19-.13.06,0-.29-.19a22.18,22.18,0,0,1-3.77-1.68c-.37-.25-.71-.67-1.26-.67C369.41,38.89,373.15,39.92,374.29,40Zm-2.38-10.57c.1-.07.47.14.27-1.34a10.15,10.15,0,0,0-1.06-2.8l-.72-1.11-.08-.07c.2.8.65,1.7.94,2.52A26.23,26.23,0,0,0,371.91,29.38ZM331.2,44.66a9.92,9.92,0,0,0-.61-5.43c-.18.3-.2.26-.17.91l.1,1Zm17.09-8.88a22.84,22.84,0,0,0,.8,5.5,9.54,9.54,0,0,0-.28-4.37C348.66,36.36,348.62,36.08,348.29,35.78Zm-64,55.43a3.79,3.79,0,0,0,1.31,1.33,8.16,8.16,0,0,0,1.44,1.21,28.9,28.9,0,0,0,5.09,2.9,40.69,40.69,0,0,0,8,2.46,99.76,99.76,0,0,0,18.6,1.61A114.17,114.17,0,0,0,340,98.86c6.45-1.27,13.67-3,19.06-5.53a94,94,0,0,0,14.61-8.61,68.9,68.9,0,0,0,6.22-5c.53-.46.95-.85,1.41-1.33A40.28,40.28,0,0,0,385.27,74c1.46-2.47,2.59-4.9,1.49-8.12-.91-2.66-3.52-3.33-4-7.45-.32-2.82,1.28-5.72,1.07-8.65-.27-3.93-4.19-5.07-4.37-6.8,1.88-.61,1.38.23,3.58-1.88.47-.46.61-.9,1.45-1.18s1.45,0,2.45-.27a3.63,3.63,0,0,0,.28-1.06l1.46-3.14c.79-1.69,2.52-1.53,2.15-4-2.66,1-1.18,2.42-5.17,1.89.17-1.28,1.49-1.66,3.4-3.34a12.13,12.13,0,0,0,2.77-4c.7-1.7.83-2.9-1.4-4.15-2.59-1.46-2.94.7-4.8,1.27a16.4,16.4,0,0,0-1.34-3.78,2.09,2.09,0,0,0-3.35-.1c-1.32,1.65-.8,6.11-1.25,7.67a20.51,20.51,0,0,0-.85-1.91c-2.46-3.66-1.11-2.29-2.44-6.16a23.23,23.23,0,0,0-4.1-7.29A27,27,0,0,0,361.17,4a5.89,5.89,0,0,0-2-.65,13.77,13.77,0,0,0-3-1,33,33,0,0,0-3.4-.67,46.88,46.88,0,0,0-6.35-.84c-15.18-1.26-36.33,2.36-49.29,8.84-4.94,2.46-11.4,7.35-14.58,11.52a30.11,30.11,0,0,0-5,8.42c-1.78,4.95-2.79,10.34-1.45,15.63.19.76,1.07,2.61.91,3.12-1,1.07-5.91-.6-7.28-.84-2-.34-4.1-.78-5.4.72-.45.52-.78.67-1.06,1.34s.24,4.13,2.81,3.51c6-1.45,6,3.08,7.09,4.14.53,0,1.08-.29,1.76-.4,5.87-1,3.56.25,5.23.24.57,0,2.55-.76,3.37-1,1.59-.37,2.38-.14,3.1.78-2.57.49-4.91.88-7.59,1.26-2.47.35-5.08.7-6.22,2.34s-.21,4.08,1.24,5.16c.68.5,2,.44,3.05.6a8.79,8.79,0,0,1,3,.6c.39,1.78-.56,3.35-.11,5.82.13.71.51,1.3.57,1.89-.31,1.17-2-.78-1.33,5.31A21.52,21.52,0,0,0,280.81,86a6.4,6.4,0,0,0,1.14,2A9.47,9.47,0,0,0,284.33,91.21Zm3.36.19c-.25-.42,0-.16-.42-.45l-.4-.28-.09,0-.63-.52-2.63-3.44-.39-.93-.29-.74-.35-.66c-.08-.93-.71-2.49-.88-3.68-.92-6.13,1.63-3.5,5.95-1.94,1.37.5,4.19.84,6.24,1.34A89.16,89.16,0,0,0,307,81.84c10.64.8,20.06-1.43,30.77-3.43A99.66,99.66,0,0,0,352,74.62c7.14-2.25,12.65-4.42,19.38-7.22,3.73-1.55,9.75-4.32,13-1.74,2.58,2.06,0,5.85-1.42,7.93-.21.3-.59.73-.9,1.1l-4.25,4.78c-3.93,4.52-15.47,11-21.58,13.43-8.27,3.29-21.37,5.11-30.38,5.59-10.45.56-17.4,1-27.64-2-2.33-.68-7.29-2.5-9.39-4.23A4.79,4.79,0,0,0,287.69,91.4Zm51.2,4.85c-.17-1.21-.84-5.47-1.41-6.16l.4,6.37Zm28.33-10.37.93-.51c-.4-1.13-.89-2.2-1.4-3.29s-1-2-1.5-3Zm15-13.92.21-.8A33.1,33.1,0,0,0,376.52,67l4.27,3.84A9.85,9.85,0,0,0,382.25,72Zm-49.6,25.21.67,0-.3-2.36,0-.38-.74-5.2c-.39,1.13,0,5.14.21,6.58l.09.65Zm25.16-6.49c-.31-1.22-1.8-5.87-2.38-6.55l1.44,7Zm-13.23,4.14,1-.17c-.21-1.32-.95-6-1.55-6.76Zm13.25-56.89a43.2,43.2,0,0,0-1.47-7c-.22.95.38,5.9.48,7.24ZM334,97l.67-.1L333.18,87C332.76,88.52,333.76,95,334,97Zm46.1-22.07a1.75,1.75,0,0,0,1-.73l-4.67-6.07C376.66,68.84,379.56,73.73,380.12,74.92Zm-9.25,8.76.87-.57a17.3,17.3,0,0,0-1.77-3.2l-1.7-2.7c-.17-.26,0,0-.11-.17a.84.84,0,0,0-.24-.23L370,82c.15.33.25.57.38.9A1.5,1.5,0,0,0,370.87,83.68ZM354.72,38.63c-.19-1.47-.66-6.74-1.25-7.77l.17,8ZM343.21,95.51l.8-.23-1.41-9.4c-.25.87.28,7.33.47,8.67ZM378.44,77.7A2.73,2.73,0,0,0,379,77c-.63-1.15-1.21-2.51-1.82-3.73l-2-3.63C375.47,71.06,377.66,77,378.44,77.7ZM330.85,97.36l.94-.16L330.36,89c-.36,1,.09,5.84.3,7.18Zm-43.21-8c-.14-1.17-.77-2.15-.84-3.64a11,11,0,0,1-.08-1.9c.16-1.1.32-1,.44-1.81-.6.15-.74.13-.93.55A6.57,6.57,0,0,0,287.64,89.33Zm53.77,6.44,1.07-.22a41.86,41.86,0,0,0-1.33-8.06Zm10.2-2.65L350,84.46c-.35,1.3.39,7.12.67,8.9Zm11-4.81.86-.38c-.39-1.46-1.94-7.09-2.57-7.92A60.46,60.46,0,0,0,362.57,88.31Zm-12.71,5.11a32.65,32.65,0,0,0-2.74-7.27l1.65,7.56Zm10.88-4.26,1.15-.43a39.93,39.93,0,0,0-2.53-5.07,6.65,6.65,0,0,0-1.06-1.6Zm-33.54.89c-.09.17,0-.09-.13.29-.31,1-.73,6.38-.35,7.36l1-.17Zm49.68-11,.86-.7A27.06,27.06,0,0,0,374,72.07,73.43,73.43,0,0,0,376.88,79.08ZM299.67,94.65l.95,0,0-1.92c0-.67-.06-1.24-.1-1.92a20.07,20.07,0,0,0-.38-3.76A27.9,27.9,0,0,0,299.67,94.65ZM354.81,28.8a56.68,56.68,0,0,0,.63,9.75l.78-.18C356.09,36.76,355.2,30.19,354.81,28.8Zm-3.47-14.3c4-1.61,5.86-.15,4.5.66-1.41.58-2.41-.37-3.38-.66.74,2.33,5.07,1.66,4.7-.63C356,13,352.17,13.06,351.34,14.5Zm4.17,77.07.74-.23a78,78,0,0,0-2.51-9A49.69,49.69,0,0,0,355.51,91.57ZM298.82,15.11c1.51-.38,3.54-1.22,4.76-.26.28,1.05-.59,1.28-1.59,1.1s-1.47-.69-2.07-.79a2.3,2.3,0,0,0,2.52,1.42c1.34-.1,2.31-.89,2.23-2-.28-.56-3.77-1.19-5.57.23C298.74,15.08,299,14.93,298.82,15.11Zm-1.69,78.46.89.32-1.12-4.08c-.25-1.22-.07-4.33-.29-5.84C295.39,85.62,296.48,91.27,297.13,93.57Zm-7.61-66.34c1.35-.21,5-1.74,4.9.41-1.37,1.27-2.86-.24-3.75-.35.6.92.82,1.42,2.28,1.43a2.34,2.34,0,0,0,2.5-1.66c.08-.73-.46-.69-1.09-.82C292.65,25.89,290.69,26,289.52,27.23Zm42.94-16.76c.74,1.38.31,1.23.8,1.81,2.92-.11,3.31-3.16.72-2.82C333,9.59,332.88,10,332.46,10.47ZM312.9,20.64c.77,1.17.15,1.5.86,1.75a2.28,2.28,0,0,0,1.82-.61c.63-.63,1.09-2.59-1.36-2.14A1.59,1.59,0,0,0,312.9,20.64Zm28.53,51.75c1.16-1.29,2.45-3.78,1-5.41L340,73.78Zm-4.09-44.81c.8,1.38.22,1.89,1.22,1.84,2.14-.1,2.83-2.79.85-2.84C338,26.54,338,27,337.34,27.58Zm35.1,55c.43-.25.81-.59,1.28-.85-.29-1-1.91-4-2.5-5.31-.23-.47-.53-1.48-.77-1.81C370.29,75.06,372,81.73,372.44,82.58Zm-79.75,9.75c-.74-1.49-1.92-7.34-3.54-8.92a44.19,44.19,0,0,0,1.33,5c.22.83.41,1.68.61,2.51S291.08,92.06,292.69,92.33Zm42.06-5c-.4,1.24.63,7.9.95,9.58l.93-.15C336.52,94.23,335.35,89.88,334.75,87.3Zm-40.68,5.52,1.67.42c-1.42-2.66-3.57-10.36-3.91-10.72C292.07,86.32,293.33,89.29,294.07,92.82Zm34.56,4.62,1.42,0c-.09-.9-1.3-9.23-2.11-10.23ZM333.83,67a9.81,9.81,0,0,0-1.67,3.88c-.18.87-.94,4-.16,4.43s.88-.64,1-1.28c.11-.81.28-1.46.42-2.28A25.59,25.59,0,0,0,333.83,67Zm6.55-47.67c.1.58.54,1.24,1.05,1.31,1.07.16,4.73-1.08,4.51-2.73C344.2,17.16,341.36,18.44,340.38,19.29Zm-19.74,12.9c.83,2.14,3.15,1,4.68-.06.95-.66,1-.77.92-1.43C324.85,29.87,321.35,31.21,320.64,32.19Zm48,52.88,1.22-.66a60.29,60.29,0,0,0-2.41-5.58c-.95-1.73-1.61-3.61-2.55-5.33a17.48,17.48,0,0,0,.8,3c.63,1.84,1.05,3.69,1.86,5.79C367.89,83.2,368.35,84.2,368.62,85.07ZM306.23,97.16c-1.62-2.22-2.06-2.48-3.13-5.56a34.53,34.53,0,0,1-1-3.44c-.17-.75-.56-3.35-.79-3.77-1.41,2.08,1.22,8.32,2.42,10.66C304.4,96.36,304.29,96.88,306.23,97.16Zm16.67-12a.92.92,0,0,0-.3.68,16.7,16.7,0,0,0,.39,5.65,25.26,25.26,0,0,1,.45,6.63l1.34,0c-.83-2.41-.38-4.12-.72-6.47S323.06,87.3,322.9,85.11Zm42,2,1.12-.55c-.31-1.07-4.56-10.56-5-11a45,45,0,0,0,1.71,6.06l1.76,4.88c.06.12.07.19.13.3Zm9.83-6.34a2.15,2.15,0,0,0,.61-.38,3,3,0,0,0,.47-.47A48.41,48.41,0,0,0,373,74.86c-.52-.88-1-1.67-1.51-2.52a25.24,25.24,0,0,1-1.54-2.54c-.06.14-.12,0-.09.34l.42,1.12c.19.49.33.89.58,1.4l2.48,5.51C373.76,79,374.4,80,374.73,80.79ZM340.88,95.9c-.18-1.72-1.4-11.61-1.87-12.5-.46,1,.39,11,.67,12.79Zm9.75-15.16c0,4.05,1.13,8.32,1.88,12l1.28-.4C353.34,90.43,351.32,81.84,350.63,80.74Zm8,9.56,1.17-.54a113.76,113.76,0,0,0-4.41-11.26C355.44,80.8,357.69,88.25,358.61,90.3Zm-13.94-8a61.27,61.27,0,0,0,1.75,12.18l1.28-.3C347.26,92,345.5,83.79,344.67,82.32ZM329.82,54.8a2.78,2.78,0,0,0-1.44-1.11c-.51-.06-1.53.72-1.87,1s-.48.42-.74.64a16.48,16.48,0,0,1-2.44,1.87c-1.69.91-2.82-.08-4.6.14-1.54.2-3.53,1.44-4.75,1-.21-1.51.73-1.74.33-3.3-.69,0-.71.39-1,.86-.51.85-1.87,2.58-.51,4s4.09-1.65,5.72-1.62c1.13,0,1.31.95,3.12.35C325.76,57.3,326.79,54.08,329.82,54.8Zm-22.9-3.89c-1.94-1-13.9.42-16.61.48s-5.15-.28-7.7-.44a61.26,61.26,0,0,0-8.35.4c.42-.08,9,1.39,11.7,1.5,1.43,0,3-.19,4.51-.15a15.84,15.84,0,0,1,1.83.31c.64.09,1.32.16,2,.24a12.1,12.1,0,0,0,4.21.11,28.07,28.07,0,0,0,4.14-1.25A23.59,23.59,0,0,1,306.92,50.91Zm40.72,8.49c3.54-.28,5.87-2,9.57-2.5a9.23,9.23,0,0,1,4.62.4A9.13,9.13,0,0,1,365,59.6c-.39-1.65-1.71-1.85-2.06-3.13,2.34-1.73,3.75.44,5,1.56.11-1.92-1.16-3.49,1.48-3.93a5.57,5.57,0,0,0,2.56-.64c.62-.43,1.17-1.08,2-1,.74.48.42,1.18.57,1.91.9-1.66,3-3,4.66-4.17.53-.37-.28.22.17-.11a1,1,0,0,0,.2-.18c-1.58-.83-6.33,1.18-7.93,1.8C365.43,54.16,354.05,56.48,347.64,59.4ZM314.17,96.31c-1.83-.32-4-5.78-4.72-7.72-.43-1.1-.66-2.25-1.07-3.34-1,2.5,1.34,7.12,1.58,10.13-.36-.17-.19,0-.54-.43l-1.21-1.66c-1.69-2.89-2.55-7.76-3.23-8.68-1.29,2.82,3.18,11,4.16,13.23,3.88.08,8,.28,12,.24-.18-1.15-.45-2.19-.59-3.43a73.34,73.34,0,0,0-2-10.32c-.93,1.61.12,5.11.59,7,.6,2.4,1.82,5.82-1.37,5.44-1.55-.18-1.46-1.06-1.63-2.53-.21-1.79-1.78-10.18-2.46-10.87-.58,1.7,1.54,9.15,1.22,11.83C314.78,95.85,314.76,96,314.17,96.31ZM295.68,78,295,77.9c.09-.79.22-1,1.08-1.27Zm32.46-15.65a14.47,14.47,0,0,0,.66,2.53,14,14,0,0,1,.4,2.74c0,.73,0,2,.09,2.63a5.75,5.75,0,0,0,1,2c.4-.75.2-6.76-.68-8a1.1,1.1,0,0,1,.85-1.79c.89.73.74,1.88,2.06,2.55.59.3,3.7,1.52,3.65,0a3,3,0,0,0-.19-.83c-.18-.48-.4-.86-.58-1.31a.85.85,0,0,1,.39.2c.12.09.21.21.35.32a2.93,2.93,0,0,1,1.47,2.18c.06,1.24-1.46,4.58-1.8,7.31-.2,1.65.28,2.72-1.43,3.29-1,.33-5.68,1.18-6.46.34a2.82,2.82,0,0,1-.41-2.06c0-1.4,0-2.91-.05-4.31s.09-3.15-.05-4.34a58.56,58.56,0,0,0-1.23,8.75c-.09,1.12.39,2.31-1.12,2.19-.47-1.22-.11-3.65,0-4.92.12-1,.61-4,.36-4.76a21.94,21.94,0,0,0-2.35,5.8,16.81,16.81,0,0,1-2.82,5.55c-1.34,1.71-2.76-.46-7.57.58-2.05.44-4.43,1.29-6.59.31-.8-.36-.54-.21-.74-.53,1.88-1.46.32-.44,2.56-1.55-1.95.37-3.41.89-5.41.62-.12-.93.06-2.81.06-3.9,0-.69,0-1.41,0-2.1l-.09-1.63a1.54,1.54,0,0,1,0-.19c-.06-.21,0-.08-.13-.19a27.41,27.41,0,0,0-1.74,7.2c-.79-.26-.38-.34-1-.62l0-2.92c-.46.45-1.69,4.5-1.82,4.91l-.37,0-.21,0c-.49-.15,0,0-.3-.14.11-1,.5-2.23.7-3.26a29.58,29.58,0,0,0,.56-3.39l-.54,1c-.18.42-.28.68-.46,1.07a17.36,17.36,0,0,0-.83,2.19l-1.2.27a28.44,28.44,0,0,0,.41-3.83A23.31,23.31,0,0,0,294.26,75c-.17.4-.4.91-.59,1.32s-.29.46-1.35.95c.23-1.4.64-2.78.93-4.26a30,30,0,0,0,.66-4.35c-.83.8-3.38,7-3.5,8.6l-1.13-.2a34.79,34.79,0,0,0,.13-4.23,24.55,24.55,0,0,0-1.54,3.69L286,75.74l.35-5.93a10.52,10.52,0,0,0-1,2.44,16.49,16.49,0,0,1-.87,2.75l-1.13-.68c-.58-.35-1.86-1.35-2-2s.17-1,.57-1.38c-.35-.9-.92-1.64-.12-2.36a9.08,9.08,0,0,1,2.42-1.09,1.75,1.75,0,0,1,2.3.13c.81.58.86,1.12,1.44,1.94-.2-2.06-1.71-3.05,2.22-3.38C292.34,66,300,65,302,64.51a8.17,8.17,0,0,1,3.94-.57,2.27,2.27,0,0,1,.65.12l.51.23a11.35,11.35,0,0,0,1.12,5.11c.94,2.6.62,4.75,2.49,7.17a2.84,2.84,0,0,0,1.82,1.22c2.07.11,3.42-1.33,4.34-2.22a18.92,18.92,0,0,0,2.53-3.43c.41-.62.79-1.22,1.19-1.84l4.39-4.79C325.48,64.82,327.18,62.69,328.14,62.36ZM371,62.29c-.59,1-2.08,5.05-3.88,3.39-.25-.42.59-2.41.41-4a4.83,4.83,0,0,0-.42,1l-1.05,1.81c-1.3,1.66-.78,2.15-1.73,2.6a5.55,5.55,0,0,1-2.43.7c-2-.6,1.27-2.44.58-6.21-.78.52-1.54,2.92-1.88,3.7s-1.39,3-2.29,3.35c-.2-2.07,1.09-3.09.32-5-.53.12-.89,1.2-1.08,1.66-.74,1.76-.71,2.57-1.91,4-.65.76-1.32.79-2.49.95.17-1.88,2.31-3.86,1.19-6.4L352,69.38c-.24.57-.85,2.56-1.62,1.5-.52-.73.83-1.94.22-5.16-1.36.74-1.53,3.34-1.73,4.47-.34,1.87-1.33,2.89-3.78,3,.13-2,1.83-4.43,1.59-7.38-1.5,1.32-2.07,4.18-2.44,6a3.65,3.65,0,0,1-1.9,2.49c-3.07,2-6.53,2-5.62-.38a10.21,10.21,0,0,0,1-3.21c.37-2,.43-3.15,1.7-4.6a4.82,4.82,0,0,1,1.36-1c-.1-1.65-2.74-1.64.5-4.17,1.38-1.08,14.57-5.35,16.65-6,3.85-1.18,8.15-2.12,11.85-3.5,1.78-.66,3.66-1.42,5.59-2a6.82,6.82,0,0,0,2.45-1.18c2.42-1.85,3.32-1.88,3.29,1.51,0,4.15.71,5-.61,9.21-.94,3,.59,3.33-3.38,4C374.9,63.4,372.32,63.18,371,62.29Zm-96,2.38c-2-.11-2.22-3.12-.82-4.21,1.07-.83,4.91-.68,6.46-.79,2.2-.15,4.5-.34,6.71-.42,3.65-.13,1.84,2.82,3.64,3.29-.11-1.15-.5-2.07-.19-3.1,1.07-.54,9.83-.39,12.36-.43,1,0,3.48-.26,4.3-.15.6,2.29.65,2.72-.06,4.59l-.56-.69c-.73-1.13-.17-1.2-.53-2l-.62-.88A24.29,24.29,0,0,0,306,62.5l-1.3.24c-.53-.8-.36-.31-.49-1.34a2.25,2.25,0,0,0-.68-1.14c0,.43,0,1,0,1.4a12.8,12.8,0,0,1,.2,1.32l-.81.16a2.55,2.55,0,0,1-.66-1.3,1.32,1.32,0,0,0-.71-1.32,8.51,8.51,0,0,1,.09,1.5c.06.49.28.88.34,1.33l-2.11.48c-1.55-2.07-.49-1.19-1-2.26l-.21-.34-.06-.08-.31-.26c.12.72,0,1.08.1,1.71s.35,1,.47,1.48l-1.08.19a7,7,0,0,1-1-2,2.79,2.79,0,0,0-.74-2.08,15,15,0,0,0,.34,4.32,3.89,3.89,0,0,1-1.28-3,2.28,2.28,0,0,0-.66-1.05c.36,3.48-.19.83.77,4.21-.94.06-.83.23-1.18-.49-1.35-2.82,0-2.53-1.15-4.13-.34.69,0,3.28.25,4.23.21.73.09.37,0,.58-.39-.07-.2.24-.66-.69a2.38,2.38,0,0,1-.38-1c-.08-1.3.1-1-.55-2.25a8.33,8.33,0,0,0,.3,4l-1.15.12c-1.72-2.23-1-2.66-1.33-3.49a2.79,2.79,0,0,0-.7-1.2,20.71,20.71,0,0,0,.85,4.69c-.65,0-.55,0-.86-.51-1-1.57,0-1-.82-2.58l-.42-.53a13.69,13.69,0,0,1,.13,1.87,11.34,11.34,0,0,0,.41,1.76c-1.44-.45-2.1-2.55-2.76-4.06-.28.27-.3.24-.31.72,0,1.4.59,1.84.61,2.79l-.72.5c-1.51-2.29-.22-1.5-1.33-4-.45,1,0,3.15.34,4.18-3,.19-1.66-3.37-3.48-3.88-.85,1,.52,2.16.33,3.48l-.76.37c-.22-.72-.07-2.28-.38-2.67a6.23,6.23,0,0,0-.05,2.73l-.67.08a9.66,9.66,0,0,1-.29-2.42c0-1,0-.48-.17-.64a6,6,0,0,0,.07,3.05h-.67c-.6-1.32-.13-2.81-.57-3.29a6.14,6.14,0,0,0,.17,3.23l-.79-.13-.34-2.67c0-.86-.09-.55-.2-.68a5.81,5.81,0,0,0,.21,3.29c-1-.07-1-.43-1.12-2l0-1.19c-.12-.59-.05-.2-.22-.38A6,6,0,0,0,275,64.67Zm76.18-9.55a9.79,9.79,0,0,0-.35-2.55c-.17,1,0,1.88-.1,2.72l-.57.15-.37-3.15a4.9,4.9,0,0,0,.05,3.29c-1.64.46-3.59,1.14-5.16,1.71a52.2,52.2,0,0,1-4.94,2c.49-.51,10-8.09,11.88-9.83,2.52-2.27,4-.22,5.7,0a7.9,7.9,0,0,0,2.46-.13c3.18-.59,6.58-1.67,9.8-2.2,2.29-.37,2.67-.24,4.63-1.27,1.15-.6,3.26-1.79,3.38.42.09,1.75-6.3,2.87-8.22,3.36C362.43,51.42,357.69,53.24,351.19,55.12Zm-35.87-5.21,8.81-.92c-.26.7-.92,1.41-1.25,2.28.59-.41,1.92-2.33,2.11-2.43l1.13-.16a11.17,11.17,0,0,1-1.64,2.47l-1.91,2.18c.89-.28,4-3.3,4.29-4.75l1.45-.2c-.26.72-.73,1.39-1,2.14a6.29,6.29,0,0,0,1.53-2.19l2.35-.45c-.23.85-1.47,2.23-1.82,3.29A15.47,15.47,0,0,0,332,47.75a149.67,149.67,0,0,0,19.81-4.83,26.75,26.75,0,0,1,2.64-.85c1,.71.16,1.86-.76,3.21-.8,1.18-1.48,1.89-2.26,2.92-1.12,1.46-10.09,8.67-12.7,11a2.23,2.23,0,0,1-1.23.74,23.76,23.76,0,0,1-9.58-.07c-1.94-.38-2.29,1.65-2.8,2.38-.31.45-.55.61-.8.94a7.09,7.09,0,0,0-.6,1.08A26.68,26.68,0,0,1,318.11,71a17.9,17.9,0,0,0-2,1.73c-.84,1-2.93,3.17-4.58,1.54-1.28-1.26-1.61-3.41-2.27-5.18-1.25-3.36-1.51-2.62-.62-5.45,1.29-4.09-1.58-6.14,3.25-10A15.53,15.53,0,0,0,315.32,49.91Zm-1.2,0c-.12.17,0,.1-.22.28L312,51.72a25.12,25.12,0,0,1-1.7,2.05c-2.24,2.12-1.86,1.22-2.8,4.66l-.66-.1a13.62,13.62,0,0,0,.89-2.17l-.43.5-.3.47a3.56,3.56,0,0,0-.54,1.11l-.73,0,.46-1.91a16.37,16.37,0,0,0-.91,1.83h-.75c0-.64.9-2.26,1-3.17L304,58.12l-.69-.12c.44-2,1.53-3.1,1.95-4.36a7.41,7.41,0,0,0-1.51,2,5.63,5.63,0,0,0-.94,2.46h-.88c-.17-.37.17-.68.24-1.58l-.21.28-.06.08a3.85,3.85,0,0,0-.19.44,2.65,2.65,0,0,1-.34.78l-.79.1c.09-.66.73-1.79.94-3a11,11,0,0,0-1.29,2.56l-.24.47-.69.09A7.74,7.74,0,0,1,300.1,56a19.73,19.73,0,0,0,1.15-2.22A10.29,10.29,0,0,0,299.08,57c-.18.45-.23.91-.39,1.31-2.54.3-3.7-1.43-5.36-1.78a27.24,27.24,0,0,1-3-.53c-.88-.42.29-.9-2.54-1.08a13.56,13.56,0,0,0-3.37.08,43.94,43.94,0,0,1-10.83,1.16,3.82,3.82,0,0,0-.64-1.76l-1.23-1c-3.78-3.34-5.4-.48-6.68-1.69-.7-.66-.83-3.08.07-3.43s3.27.71,4.16,1.08a15.29,15.29,0,0,0,6.58,1c1.72-.12,2.91-.39,4.6-.36,2.72,0,5.22.36,7.93.47a64.9,64.9,0,0,0,8.77-.48C304.35,49.34,310,50.46,314.12,49.9Zm58.57-18.45c.95-.42,5.29-2.62,5.57-2.5,1.07,1-.41,2-1.3,2.6A8,8,0,0,1,373.38,33L372,31.87Z"/><path class="cls-2" d="M123,80.59c-.18.67-.42,1.66-.74,3L122.05,85c-.16.58-.47.89-.91.93a.78.78,0,0,1-.65-.22.89.89,0,0,1-.21-.54,8.83,8.83,0,0,1,.41-2.41c.39-1.43.62-2.22.65-2.37.12-.63.22-1.26.34-1.88a5.33,5.33,0,0,1,.58-1.75,1,1,0,0,1,.79-.49.75.75,0,0,1,.8.48,9.39,9.39,0,0,1,.53,2.08,27.25,27.25,0,0,0,.8,3.28c.44-1.22.86-2.56,1.25-4l.32-1.4c.22-.6.55-.91,1-1s.76.26,1,.9a9,9,0,0,1,.29,1.46,29,29,0,0,0,.9,4.29,18.87,18.87,0,0,1,.54,2,.85.85,0,0,1-.28.61,1,1,0,0,1-.58.28c-.43,0-.76-.24-1-.84l-.35-1.43c-.18-.69-.4-1.71-.63-3-.19.54-.47,1.42-.88,2.59l-.35,1.14a7.8,7.8,0,0,1-.46,1.11,1.06,1.06,0,0,1-.88.64.83.83,0,0,1-.87-.57l-.34-1.09c-.31-1-.6-2-.85-3.14"/><path class="cls-2" d="M134.28,84.52a3.48,3.48,0,0,1-2.34-.47,2.21,2.21,0,0,1-1-2,4.39,4.39,0,0,1,.78-2.62A3.14,3.14,0,0,1,134.09,78a3.78,3.78,0,0,1,1.71.17,1.28,1.28,0,0,1,.91,1.28,1.6,1.6,0,0,1-.72,1.25,10.93,10.93,0,0,1-1.35.8l-2,1.09a1.65,1.65,0,0,0,.7.38,2.16,2.16,0,0,0,.93.07,2.75,2.75,0,0,0,1.35-.46,2,2,0,0,1,.79-.37c.42,0,.62.14.63.54s-.33.87-1,1.22A4.83,4.83,0,0,1,134.28,84.52Zm-.18-5a1.49,1.49,0,0,0-1,.45,3,3,0,0,0-.63,1.18l1.35-.7a12.3,12.3,0,0,0,1.28-.81,2.09,2.09,0,0,0-1-.12M143,83.64a.8.8,0,0,1-.59-.17.65.65,0,0,1-.25-.54q0-.51,0-1.86l-.2,0a12.73,12.73,0,0,0-2.5.5c0,.16,0,.44-.06.85s0,.64,0,.86a.78.78,0,0,1-.24.59.86.86,0,0,1-.58.27.75.75,0,0,1-.6-.16.66.66,0,0,1-.24-.54,3.35,3.35,0,0,1,.05-.56,5.28,5.28,0,0,0,.06-.55c0-.24,0-.57,0-1s0-.78,0-1,0-.57,0-1,0-.8,0-1a.77.77,0,0,1,.23-.57.87.87,0,0,1,.59-.28.81.81,0,0,1,.6.16.65.65,0,0,1,.24.53c0,.26,0,.58,0,1,0,.53,0,.85,0,.95a13.26,13.26,0,0,1,2.68-.47v-.13c0-.2,0-.49,0-.87s0-.68,0-.87a.79.79,0,0,1,.23-.58.9.9,0,0,1,.59-.27.75.75,0,0,1,.6.16.65.65,0,0,1,.24.53c0,.21,0,.49,0,.87s0,.67,0,.87c0,.4,0,1,0,1.77s0,1.37,0,1.77a.82.82,0,0,1-.23.59,1,1,0,0,1-.6.28"/><path class="cls-2" d="M147.1,83.12l-.58,0-.59,0a1,1,0,0,1-.22,0c-.56.05-.85-.25-.85-.91,0-.08,0-.31.06-.7a11.44,11.44,0,0,0,.08-1.39c0-.29,0-.71-.07-1.24s-.05-1-.05-1.27A.91.91,0,0,1,146.3,77a.61.61,0,0,1,.24.5c0,.33,0,.78.07,1.38l.24,0a4.89,4.89,0,0,1,2.24.18,1.69,1.69,0,0,1,1,1.71,2,2,0,0,1-.92,1.74A4.47,4.47,0,0,1,147.1,83.12Zm0-2.89a3.94,3.94,0,0,0-.4,0c0,.32,0,.81-.08,1.48l.53-.05c.89-.09,1.34-.36,1.34-.82s-.1-.52-.3-.6a2.23,2.23,0,0,0-1.09-.06"/><path class="cls-2" d="M157.61,80.72a7.49,7.49,0,0,0,0-.87c0-.28,0-.7,0-1.25s-.05-1-.05-1.24a3.34,3.34,0,0,1,.17-1.1.92.92,0,0,1,.77-.69.84.84,0,0,1,.58.15.59.59,0,0,1,.28.52,4,4,0,0,1-.07.46,2.88,2.88,0,0,0-.06.57c0,.26,0,.65,0,1.16s0,.89,0,1.16c0,.12,0,.32,0,.57s0,.45,0,.58a1.86,1.86,0,0,1-.22,1.11,1.53,1.53,0,0,1-1.1.46c-.71.07-1.76.15-3.17.25s-2.47.17-3.18.24a.75.75,0,0,1-.59-.18.65.65,0,0,1-.25-.51s0-.46.11-1.26.11-2.14.1-3.89a.82.82,0,0,1,.24-.58.93.93,0,0,1,.59-.27.83.83,0,0,1,.6.16.66.66,0,0,1,.23.53,44,44,0,0,1-.15,4.42l.74,0,.51-.07.5-.06a7.38,7.38,0,0,0,0-.87c0-.28,0-.69,0-1.24s-.05-1-.05-1.24a3.26,3.26,0,0,1,.17-1.1c.17-.43.42-.67.77-.7a.9.9,0,0,1,.6.15.67.67,0,0,1,.26.53c0,.07,0,.22-.06.46a3,3,0,0,0-.07.57c0,.25,0,.64,0,1.16s0,.89,0,1.14,0,.3,0,.49a4,4,0,0,0,0,.5c.21,0,.46,0,.73,0l.51-.06.5-.06m5.81,1a3.54,3.54,0,0,1-2.34-.46,2.26,2.26,0,0,1-1-2,4.39,4.39,0,0,1,.78-2.62,3.14,3.14,0,0,1,2.38-1.39,3.78,3.78,0,0,1,1.71.17,1.3,1.3,0,0,1,.92,1.28,1.64,1.64,0,0,1-.73,1.25,11.39,11.39,0,0,1-1.34.8l-2,1.08a1.57,1.57,0,0,0,.7.39,2.16,2.16,0,0,0,.93.07,2.75,2.75,0,0,0,1.35-.46,2,2,0,0,1,.79-.37c.42,0,.63.14.63.55s-.33.86-1,1.22A5,5,0,0,1,163.42,81.75Zm-.18-5a1.49,1.49,0,0,0-1,.45,3,3,0,0,0-.63,1.18l1.35-.7a12.3,12.3,0,0,0,1.28-.81,2.09,2.09,0,0,0-1-.12"/><path class="cls-2" d="M181.68,79.84c-.87.08-2.18.2-3.93.33s-3,.24-3.91.32l-.34.06-.35,0c-.57.06-.85-.13-.86-.54a2,2,0,0,1,.05-.29,1.59,1.59,0,0,0,.06-.29,2.86,2.86,0,0,0,0-.54c0-.38,0-1,0-1.71s0-1.32,0-1.72,0-.89-.09-1.6-.1-1.27-.1-1.62a.94.94,0,0,1,.23-.61.86.86,0,0,1,.61-.29.68.68,0,0,1,.83.65,38,38,0,0,1,.18,4.39c0,1.71,0,2.53,0,2.47l2.48-.16c0-.08,0-.29,0-.61s0-.46,0-.62c0-.56,0-1.41-.07-2.54s-.08-2-.08-2.55a2,2,0,0,1,.14-.86,1,1,0,0,1,.86-.51.67.67,0,0,1,.58.21.73.73,0,0,1,.22.53c0,.26,0,.66-.08,1.2s-.07.94-.07,1.21c0,.42,0,1.06.07,1.9s.07,1.49.07,1.92c0,.19,0,.38,0,.56l1.24-.1,1.25-.12c0-.09,0-.3,0-.62s0-.46,0-.62c0-.57,0-1.42-.07-2.54s-.07-2-.08-2.55a1.84,1.84,0,0,1,.15-.86,1,1,0,0,1,.86-.51.65.65,0,0,1,.58.2.77.77,0,0,1,.21.53,11.49,11.49,0,0,1-.08,1.21c0,.53-.07.93-.07,1.2,0,2.16.06,3.65.11,4.45,0,.07,0,.18.06.35a1.82,1.82,0,0,1,0,.35.82.82,0,0,1-.86.9"/><path class="cls-2" d="M190.42,71.47c-.1.17-.23.41-.4.75-.81,1.93-1.53,3.59-2.13,5a4,4,0,0,1-3.48,2.5.76.76,0,0,1-.59-.18.67.67,0,0,1-.24-.54.69.69,0,0,1,.34-.68,2.06,2.06,0,0,1,.74-.23,2.07,2.07,0,0,0,1.14-.59,12,12,0,0,0,.65-1.08,8.18,8.18,0,0,1-1.32-1.88,8.84,8.84,0,0,0-.92-1.43c-.52-.68-.84-1.14-1-1.39a.8.8,0,0,1-.12-.4.85.85,0,0,1,.25-.6.9.9,0,0,1,.6-.29.85.85,0,0,1,.71.31l.47.66.85,1.15a10.66,10.66,0,0,1,.72,1.26,4,4,0,0,0,.56.86c.27-.65.66-1.62,1.19-2.92.14-.28.36-.7.64-1.27a.92.92,0,0,1,.77-.6.75.75,0,0,1,.6.18.65.65,0,0,1,.26.53,2.1,2.1,0,0,1-.3.88m3.63,2.37c-.18.67-.42,1.66-.74,3-.07.46-.14.91-.22,1.37s-.46.88-.9.93a.8.8,0,0,1-.65-.22.84.84,0,0,1-.21-.55,8.77,8.77,0,0,1,.41-2.4c.39-1.43.62-2.23.65-2.37.12-.63.22-1.26.34-1.89a5.25,5.25,0,0,1,.58-1.74,1,1,0,0,1,.79-.49.74.74,0,0,1,.8.47,9.56,9.56,0,0,1,.53,2.08,26.36,26.36,0,0,0,.8,3.28c.44-1.22.86-2.55,1.25-4l.32-1.4c.22-.6.55-.91,1-1s.76.25,1,.89a9.48,9.48,0,0,1,.29,1.47,29,29,0,0,0,.9,4.29,19.13,19.13,0,0,1,.54,2,.85.85,0,0,1-.28.62,1,1,0,0,1-.59.27c-.42,0-.76-.23-1-.83l-.35-1.43c-.18-.69-.4-1.71-.64-3-.18.54-.47,1.41-.88,2.59l-.35,1.14A6.35,6.35,0,0,1,197,78a1.07,1.07,0,0,1-.88.65.82.82,0,0,1-.87-.58L194.9,77c-.31-1-.6-2-.85-3.14"/><path class="cls-2" d="M207.47,77.62a1.47,1.47,0,0,1-.88-.45,6.31,6.31,0,0,1-1,.49,2.4,2.4,0,0,1-.71.21,2.59,2.59,0,0,1-2.15-.57,3.07,3.07,0,0,1-.74-2.24,3.68,3.68,0,0,1,1-2.57,3.94,3.94,0,0,1,2.54-1.27,3.43,3.43,0,0,1,1.31.2c.62.2.91.46.91.81a.58.58,0,0,1-.13.39,3.84,3.84,0,0,0-.08.59c0,.25,0,.53,0,.85a5.56,5.56,0,0,0,.16,1.61s.1.23.28.59a3.05,3.05,0,0,1,.23.55.72.72,0,0,1-.24.55A.91.91,0,0,1,207.47,77.62Zm-1.5-3.9c0-.12,0-.27,0-.44s0-.34.07-.56a1.66,1.66,0,0,0-.21-.06h-.16a2.07,2.07,0,0,0-1.41.77,2.33,2.33,0,0,0-.61,1.53,2,2,0,0,0,.3,1.18.89.89,0,0,0,.86.32,2.07,2.07,0,0,0,.7-.18,2.56,2.56,0,0,0,.62-.43,20.56,20.56,0,0,1-.18-2.12"/><path class="cls-2" d="M211.66,77.64c-.19.41-.34.73-.46,1a.77.77,0,0,1-.64.46.72.72,0,0,1-.54-.15.59.59,0,0,1-.23-.44,4.78,4.78,0,0,1,.38-1c.23-.47.4-.81.51-1a.78.78,0,0,1,.62-.42.72.72,0,0,1,.54.15.56.56,0,0,1,.22.45,4.73,4.73,0,0,1-.4,1"/><path class="cls-2" d="M224.42,68.2a4.36,4.36,0,0,1-.94.14,2.48,2.48,0,0,0-1.23.4,2.32,2.32,0,0,0-.73,1,3.29,3.29,0,0,1,1.07-.26,2,2,0,0,1,2,.91,3.85,3.85,0,0,1,.55,2.08,4.28,4.28,0,0,1-.7,2.41,2.92,2.92,0,0,1-2.24,1.35,2.23,2.23,0,0,1-2.27-1,4.8,4.8,0,0,1-.6-2.59,7.71,7.71,0,0,1,.73-3.36A3.51,3.51,0,0,1,222.69,67l.51-.06a5.71,5.71,0,0,0,.69-.1.75.75,0,0,1,.64-.58.78.78,0,0,1,.69.27.92.92,0,0,1,.26.62C225.48,67.57,225.13,67.94,224.42,68.2Zm-1.89,2.92a1.47,1.47,0,0,0-1.14.76,2.77,2.77,0,0,0-.37,1.43,1.53,1.53,0,0,0,.3,1,.94.94,0,0,0,.87.35,1.32,1.32,0,0,0,1-.63,2.31,2.31,0,0,0,.32-1.27c0-1.14-.35-1.68-1-1.62"/><path class="cls-2" d="M229.05,75.61a3.35,3.35,0,0,1-2.31-.53,2.29,2.29,0,0,1-1-2,4.52,4.52,0,0,1,.92-2.74,3.75,3.75,0,0,1,2.75-1.64q3.21-.3,3.22,2.52a4.79,4.79,0,0,1-.86,2.72A3.57,3.57,0,0,1,229.05,75.61Zm.34-5.32a1.93,1.93,0,0,0-1.38.89,3,3,0,0,0-.58,1.74,1,1,0,0,0,.46.88A1.68,1.68,0,0,0,229,74a1.8,1.8,0,0,0,1.32-.89,3,3,0,0,0,.51-1.74c0-.5-.1-.83-.31-1a1.81,1.81,0,0,0-1.17-.14"/><path class="cls-2" d="M239.25,74.5a.77.77,0,0,1-.6-.16.65.65,0,0,1-.23-.54c0-.11,0-.28,0-.49s0-.39,0-.47c0-.31,0-.7,0-1.17,0-.17,0-.84,0-2l-.55.08c-.58,0-1.15.1-1.7.12l0,1.18a8.49,8.49,0,0,1-.27,2.59,1.85,1.85,0,0,1-1.68,1.3,1.71,1.71,0,0,1-.89-.12.75.75,0,0,1-.53-.75.81.81,0,0,1,.2-.52.78.78,0,0,1,.54-.27,1.32,1.32,0,0,1,.35,0,.77.77,0,0,0,.32.06c.27,0,.4-.55.4-1.58,0-.28,0-.72-.07-1.29s-.06-1-.07-1.3a.74.74,0,0,1,.26-.58,1,1,0,0,1,.61-.27l.41,0h.42c.44,0,1-.07,1.68-.14a3.55,3.55,0,0,0,.64-.13,3.46,3.46,0,0,1,.66-.15c.62-.06.91.17.91.67,0,.33,0,.81,0,1.46s0,1.13,0,1.45,0,.83,0,1.12c0,.1,0,.27,0,.51a3.87,3.87,0,0,1,0,.51.8.8,0,0,1-.23.59,1,1,0,0,1-.6.27m4.21-.54-.59,0-.59,0a1,1,0,0,1-.22,0c-.56,0-.84-.25-.84-.91,0-.08,0-.31.05-.69a11.72,11.72,0,0,0,.08-1.4,11,11,0,0,0-.07-1.24c0-.55-.05-1-.05-1.27a.79.79,0,0,1,.82-.88.8.8,0,0,1,.61.15.6.6,0,0,1,.23.5c0,.33,0,.78.07,1.38l.25,0a4.78,4.78,0,0,1,2.24.17,1.68,1.68,0,0,1,1,1.71,2,2,0,0,1-.92,1.74A4.31,4.31,0,0,1,243.46,74Zm-.05-2.89-.4.05c0,.32,0,.81-.08,1.48l.52,0c.9-.09,1.35-.36,1.34-.81s-.1-.53-.29-.61a2.38,2.38,0,0,0-1.09-.06"/><path class="cls-2" d="M254,71.56c0-.24,0-.54,0-.87s0-.7,0-1.25,0-1,0-1.24a3.25,3.25,0,0,1,.16-1.09.93.93,0,0,1,.77-.7.86.86,0,0,1,.59.15.62.62,0,0,1,.27.53,2.79,2.79,0,0,1-.07.46,2.79,2.79,0,0,0-.06.56c0,.26,0,.65,0,1.17s0,.89,0,1.15,0,.32,0,.57,0,.46,0,.58a1.93,1.93,0,0,1-.23,1.11,1.51,1.51,0,0,1-1.1.46c-.71.07-1.76.15-3.17.25l-3.18.24a.79.79,0,0,1-.59-.17.67.67,0,0,1-.24-.52s0-.46.1-1.26.11-2.14.1-3.89a.79.79,0,0,1,.25-.57.85.85,0,0,1,.58-.28.83.83,0,0,1,.6.16.68.68,0,0,1,.24.53c0,1.86-.05,3.33-.15,4.42.22,0,.46,0,.73,0l.52-.06.5-.06c0-.25,0-.55,0-.88s0-.69,0-1.24,0-1,0-1.24a3.11,3.11,0,0,1,.16-1.1,1,1,0,0,1,.77-.7.89.89,0,0,1,.6.15.64.64,0,0,1,.26.53,3.74,3.74,0,0,1-.06.46,3,3,0,0,0-.07.57c0,.26,0,.65,0,1.16s0,.89,0,1.15a4.27,4.27,0,0,1,0,.49c0,.26,0,.42,0,.49.22,0,.46,0,.73,0a4.61,4.61,0,0,0,.52-.06l.5-.06m5.81,1a3.51,3.51,0,0,1-2.35-.46,2.27,2.27,0,0,1-1-2,4.46,4.46,0,0,1,.78-2.63,3.18,3.18,0,0,1,2.38-1.39,3.83,3.83,0,0,1,1.72.17,1.3,1.3,0,0,1,.91,1.29,1.61,1.61,0,0,1-.73,1.24,11.39,11.39,0,0,1-1.34.8l-2,1.09a1.5,1.5,0,0,0,.7.38,2.14,2.14,0,0,0,.93.07,2.81,2.81,0,0,0,1.34-.45,1.87,1.87,0,0,1,.8-.37c.41,0,.62.13.62.54s-.32.86-1,1.22A5,5,0,0,1,259.78,72.59Zm-.19-5a1.46,1.46,0,0,0-.95.46,2.76,2.76,0,0,0-.63,1.17l1.34-.7a11.31,11.31,0,0,0,1.28-.81,2.07,2.07,0,0,0-1-.12"/><path class="cls-3" d="M232.47,86.3c-6.65.37-45.2,1.82-51.69,1.72-.64,0,0-.1,0-.2l51.61-3.35a.91.91,0,0,1,1,.87A.92.92,0,0,1,232.47,86.3Zm-54.26,2.46c-19,.79-37.9,1.52-49.34,1.9-10.38.34-4.71-.27-3.28-.35l51.82-2.83Z"/><path class="cls-3" d="M228.92,55.33c-9.57,1.67-28.5,4.78-48.17,8l0-.54,47.84-9.22c.49-.09.7.4,1.06.75A.92.92,0,0,1,228.92,55.33Zm-51.68,8.52c-19.38,3.11-39,6.21-50.68,8-10.27,1.56-4.71.29-3.3,0l54-9.4Z"/><path class="cls-3" d="M114.25,62.67l35-12.16,0,.81L114.23,63c-.33.11-.18.33-.22,0S113.92,62.78,114.25,62.67Zm69.67-24.19a.59.59,0,0,1,.8.39.7.7,0,0,1-.4.8L152.77,50.15v-.32Z"/><path class="cls-3" d="M115.39,106.79l38.75,2.55.44-.77-39.29-2.06c-.35,0-.26-.27-.21.07S115,106.77,115.39,106.79Zm42.1,2.77L189,111.63c.35,0,.72-.25.67-.59a.7.7,0,0,0-.59-.67l-31.32-1.24Z"/><path class="cls-3" d="M265.07,68.07l3.71-1.71s0-.19-.09-.35-.2-.31-.24-.28L265,67.83Z"/><path class="cls-3" d="M264.82,69.65l7.57-.37V68.6l-7.62.82c-.07,0-.08-.22,0,.07S264.75,69.65,264.82,69.65Z"/></g></g></g></svg>