<svg xmlns="http://www.w3.org/2000/svg" viewBox="0 0 650.35 113.88" width="200"><defs><style>.cls-1{fill:#ed6917; stroke:#fff; stroke-miterlimit:10;stroke-width:3px;fill-rule:evenodd;}</style></defs><g id="Слой_2" data-name="Слой 2"><g id="bg"><g id="LOGO"><path class="cls-1" d="M267.5,111.83c8.23.14,15.33,0,22.8-.07.26-5.83,4.69-47.65,5.89-61.93,3.82,7.1,10.53,19.17,14.89,27.3,4.56-8.9,10.09-18.67,15.31-27.29.64,9.43,2.6,25,3,34.64,7.48.14,14.86-.11,22.33,0l-5.17-69.56c-5.75,0-15.3,0-21.38,0-3.54,6.62-10.4,18.87-14.07,25.74-8.32-14.36-12-21.12-14.91-25.77,0,0-7.39-.12-21.11,0Z"/><path class="cls-1" d="M564,111.83c8.23.14,15.33,0,22.79-.07.27-5.83,4.69-47.65,5.89-61.93,3.82,7.1,10.54,19.17,14.9,27.3,4.56-8.9,10.08-18.67,15.31-27.29.64,9.43,2.59,25,3,34.64,7.47.14,14.85-.11,22.32,0L643,14.94c-5.75,0-15.31,0-21.38,0-3.55,6.62-10.41,18.87-14.08,25.74-8.32-14.36-12-21.12-14.91-25.77,0,0-7.38-.12-21.1,0Z"/><path class="cls-1" d="M487.11,99.79l23.26-.11L526.7,44.47c.77,2.34,4.54,15,4.54,15l-6.76.06s-1.78,7.21-3.83,15l15.31.15,2.8,9.78,21.88.12-21.9-69.8-24,0Z"/><path class="cls-1" d="M487.68,72.15l-.08-32.29-21.41,0c-.34,7,.55,22.43-1.42,24.64-13.69,10.31-32.49-33,6.88-31l-.47-19c-58.33-4.58-55.09,61.48-18.75,70.2,7.07,1.69,15.27,1.19,22.16-.25,9.67-2,13.12-2.09,13.09-12.22"/><path class="cls-1" d="M20.59,63.39C18.5,68.23,10.15,65.29,2,64.85V84.93c18.52,1.55,32.74,1.22,39.45-12.88C51.3,51.37,30,42.19,26.82,36.64c-2-4.44,6.78-3,9.71-3.17l0-18.76C20.59,11.51,5.73,16,3.59,30c-3.17,20.7,19.36,17.6,17,33.4"/><path class="cls-1" d="M50.29,84.5l21.1,0,.24-69.68-21.13.05Z"/><path class="cls-1" d="M82.29,3h20.88V84.51H82.29V50.13H76.05V32.61h6.24Z"/><path class="cls-1" d="M396,2h18.92l-2.56,27h8.22V46.6h-9.89l-.84,8.84h8V73h-9.63l-2.5,26.34H386.71L389.21,73H384l-2.5,26.34H362.59L365.09,73h-8.54V55.44h10.21l.84-8.84h-8.28V29h9.95l2.56-27h18.93L388.2,29h5.19Zm-5.08,53.44.84-8.84h-5.19l-.84,8.84Z"/><path class="cls-1" d="M148,12.47a37.19,37.19,0,1,1-37.19,37.19A37.19,37.19,0,0,1,148,12.47Zm0,20.86a16.33,16.33,0,1,1-16.33,16.33A16.33,16.33,0,0,1,148,33.33"/><path class="cls-1" d="M226.9,12.47a37.19,37.19,0,1,1-37.19,37.19A37.19,37.19,0,0,1,226.9,12.47Zm0,20.86a16.33,16.33,0,1,1-16.33,16.33A16.33,16.33,0,0,1,226.9,33.33"/></g></g></g></svg>