<svg height="30" viewBox="0 -18 512.00017 512" width="30" xmlns="http://www.w3.org/2000/svg"><path d="m421.832031 132.101562h-29.988281v-14.992187c0-49.609375 40.351562-89.964844 89.960938-89.964844v29.988281c-33.078126 0-59.972657 26.898438-59.972657 59.976563zm0 0" fill="#9cdd05"/><path d="m406.835938 67.4375v64.664062h14.996093v-14.992187c0-33.078125 26.894531-59.976563 59.972657-59.976563v-29.988281c-31.257813 0-58.839844 16.027344-74.96875 40.292969zm0 0" fill="#6b0"/><path d="m322.726562 195.527344-16.964843 144.910156-80.726563 15.367188-125.773437 23.796874-23.398438-42.175781c-11.699219-16.269531-20.183593-34.648437-24.863281-54.230469-9.652344-41.875-2.339844-76.21875 21.9375-106.648437 2.925781-3.617187 5.847656-7.230469 9.359375-10.847656l25.15625-25.605469v50.011719c0 6.023437 2.628906 11.445312 7.3125 15.0625 4.679687 3.3125 10.820313 4.519531 16.378906 2.410156 4.972657-1.808594 8.773438-5.421875 10.527344-10.546875 2.046875-5.421875 1.757813-11.746094-1.460937-17.171875-17.84375-31.933594-18.429688-66.878906-2.046876-100.625l10.234376-21.085937 47.011718 60.59375c4.875 6.285156 14.375 6.726562 19.5625.695312.039063-.042969.078125-.089844.117188-.132812 3.507812-4.519532 7.019531-9.640626 9.945312-15.367188 9.652344-18.675781 14.625-43.382812.875-71.398438l-.875-1.808593-14.917968-30.730469 14.917968 5.121094 18.71875 6.328125c55.574219 19.28125 86.871094 81.945312 69.613282 139.789062l-5.558594 18.679688c-2.339844 7.230469.585937 15.667969 6.730468 19.882812zm0 0" fill="#ffda2d"/><path d="m307.808594 169.917969 5.558594-18.679688c17.257812-57.84375-14.039063-120.507812-69.613282-139.789062l-18.71875-6.328125-14.917968-5.121094 14.917968 30.730469.875 1.804687c13.75 28.019532 8.777344 52.726563-.875 71.402344-2.925781 5.722656-6.433594 10.847656-9.945312 15.367188-.039063.042968-.078125.089843-.117188.132812-5.1875 6.027344-14.6875 5.589844-19.5625-.695312l-10.484375-13.515626v258.164063l40.109375-7.589844 80.726563-15.363281 16.964843-144.910156-8.1875-5.726563c-6.144531-4.21875-9.070312-12.652343-6.730468-19.882812zm0 0" fill="#fdbf00"/><path d="m507.894531 267.046875c-21.589843 120.554687-128.148437 209.917969-251.996093 209.917969h-59.976563c-107.359375 0-195.921875-87.5625-195.921875-194.921875v-36.285157l25.488281 25.789063c35.386719 35.085937 85.265625 55.476563 135.347657 55.476563h35.085937c10.492187 0 20.390625-1.5 29.988281-4.199219 28.488282-8.695313 51.878906-28.785157 64.773438-55.777344l43.179687-29.988281h11.996094c24.890625 0 45.984375-20.089844 45.984375-44.980469h29.988281c0 24.890625 20.089844 44.980469 44.980469 44.980469h9.597656zm0 0" fill="#ff4949"/><path d="m466.8125 237.0625c-24.890625 0-44.980469-20.09375-44.980469-44.984375h-14.996093v235.59375c51.804687-37.757813 89.214843-94.496094 101.058593-160.625l-31.484375-29.984375zm0 0" fill="#cc2e43"/><path d="m507.894531 267.046875h-41.082031c-24.589844 0-46.179688-11.695313-59.976562-29.984375-13.796876 18.289062-36.386719 29.984375-60.976563 29.984375h-55.175781c5.398437-10.492187 10.195312-27.585937 10.195312-44.980469 0-57.875 48.082032-104.957031 105.957032-104.957031 63.996093 0 121.199218 56.042969 101.058593 149.9375zm0 0" fill="#9cdd05"/><path d="m466.8125 267.046875h41.082031c20.140625-93.894531-37.0625-149.9375-101.058593-149.9375v119.953125c13.796874 18.289062 35.386718 29.984375 59.976562 29.984375zm0 0" fill="#6b0"/></svg>